<svg width="300" height="300" viewBox="0 0 300 300" fill="none" xmlns="http://www.w3.org/2000/svg">
<path d="M115.826 15C114.698 15.0002 113.59 15.2966 112.612 15.8597C111.635 16.4228 110.823 17.2327 110.258 18.2082C109.693 19.1837 109.394 20.2906 109.392 21.4177C109.39 22.5449 109.685 23.6528 110.246 24.6303L258.237 281.773C258.816 282.781 259.659 283.613 260.674 284.181C261.689 284.749 262.84 285.031 264.003 284.997C265.166 284.964 266.298 284.616 267.279 283.991C268.259 283.365 269.052 282.486 269.573 281.446L295.612 229.415C300.392 219.847 300.102 208.502 294.82 199.193L199.599 31.2974C193.894 21.238 183.191 15 171.612 15H115.826ZM126.948 27.8571H171.612C178.577 27.8571 184.97 31.5876 188.401 37.6381L283.623 205.534C286.796 211.127 286.977 217.92 284.1 223.677L263.415 264.986L126.948 27.8571ZM90.0636 60C88.9484 60.0045 87.8535 60.2986 86.8864 60.8533C85.9192 61.4079 85.1129 62.2042 84.5466 63.164L20.2028 172.45C19.627 173.426 19.3197 174.537 19.3121 175.67C19.3044 176.803 19.5967 177.918 20.1593 178.902C20.722 179.886 21.5349 180.704 22.5158 181.273C23.4967 181.842 24.6107 182.142 25.7449 182.143H160.867C162.024 182.143 163.159 181.831 164.154 181.24C165.148 180.65 165.965 179.802 166.518 178.787C167.071 177.772 167.34 176.626 167.297 175.471C167.253 174.316 166.899 173.194 166.271 172.224L95.4926 62.938C94.9067 62.0328 94.1025 61.2894 93.1538 60.776C92.2051 60.2626 91.1425 59.9957 90.0636 60ZM90.3526 78.6704L149.041 169.286H36.9925L90.3526 78.6704ZM6.4418 214.286C5.32031 214.284 4.21798 214.576 3.24408 215.132C2.27018 215.687 1.45853 216.487 0.88958 217.453C0.320629 218.419 0.0141343 219.516 0.000477267 220.636C-0.0131797 221.757 0.266475 222.861 0.811721 223.84L32.9836 281.698C33.5419 282.7 34.3584 283.534 35.3484 284.115C36.3383 284.696 37.4657 285.001 38.6137 285H218.776C219.898 285.001 221 284.709 221.974 284.154C222.948 283.598 223.759 282.798 224.328 281.832C224.897 280.867 225.204 279.769 225.218 278.649C225.231 277.528 224.952 276.424 224.406 275.445L192.234 217.588C191.676 216.586 190.86 215.751 189.87 215.17C188.88 214.59 187.752 214.284 186.604 214.286H6.4418ZM17.3878 227.143H182.822L207.83 272.143H42.3964L17.3878 227.143Z" fill="#737373"/>
</svg>
