<svg width="300" height="300" viewBox="0 0 300 300" fill="none" xmlns="http://www.w3.org/2000/svg">
<path d="M2 59V242H90.2329C98.4084 242 154.711 240.338 154.711 188.831C154.711 156.644 132.614 145.709 121.392 142.463C129.645 138.56 146.073 129.287 146.073 104.441C146.073 90.6077 144.106 59 87.7649 59H2ZM203.146 76.0017V92.6943H271.326V76.0017H203.146ZM42.1059 90.2213H79.7437C83.2915 90.2213 107.201 88.3279 107.201 111.242C107.201 130.832 89.9244 132.88 82.8288 132.88H42.1059V90.2213ZM238.933 107.841C187.374 107.841 176.615 152.702 176.615 172.139C176.615 229.828 223.816 236.436 238.933 236.436C279.695 236.436 291.264 210.006 296.007 195.323H266.39C265.233 199.109 256.595 211.397 240.167 211.397C212.633 211.397 210.242 189.836 210.242 180.176H297.858C299.632 146.791 285.055 107.841 238.933 107.841ZM238.008 132.88C246.222 132.88 252.855 135.276 256.827 139.681C260.799 144.124 263.729 150.616 264.539 159.155H210.242C210.396 156.798 210.936 154.094 211.785 151.118C212.633 148.066 213.944 145.168 216.104 142.463C218.263 139.797 221.271 137.478 224.742 135.662C228.29 133.807 232.686 132.88 238.008 132.88ZM42.1059 160.392H85.6053C94.2435 160.392 114.605 161.744 114.605 186.667C114.605 210.817 88.9604 210.779 84.9883 210.779H42.1059V160.392Z" fill="#737373"/>
</svg>
