<svg width="300" height="300" viewBox="0 0 300 300" fill="none" xmlns="http://www.w3.org/2000/svg">
<g clip-path="url(#clip0_26_12)">
<g clip-path="url(#clip1_26_12)">
<path d="M295.5 149.5C295.5 229.581 230.581 294.5 150.5 294.5C70.4187 294.5 5.5 229.581 5.5 149.5C5.5 69.4187 70.4187 4.5 150.5 4.5C230.581 4.5 295.5 69.4187 295.5 149.5Z" stroke="#71717A" stroke-width="11"/>
<path d="M198.073 119.477L223.701 84.8151C182.998 52.3485 120.829 54.3828 85.0389 94.9084C73.1773 108.339 65.5514 125.861 64.671 147.116C63.4462 176.687 76.585 204.021 97.2592 218.775C136.223 246.579 188.681 239.869 226.073 213.511L203.164 176.803C175.67 198.301 125.185 196.252 121.696 153.258C118.207 110.264 165.485 97.9794 198.073 119.477Z" fill="#71717A"/>
</g>
</g>
<defs>
<clipPath id="clip0_26_12">
<rect width="300" height="300" fill="white"/>
</clipPath>
<clipPath id="clip1_26_12">
<rect width="300" height="300" fill="white"/>
</clipPath>
</defs>
</svg>
