<svg width="300" height="300" viewBox="0 0 300 300" fill="none" xmlns="http://www.w3.org/2000/svg">
<g clip-path="url(#clip0_24_51)">
<path d="M150 0C67.2905 0 0 67.2906 0 150C0 232.709 67.2905 300 150 300C232.71 300 300 232.709 300 150C300 67.2906 232.71 0 150 0ZM150 22.5C181.067 22.5 209.471 33.5725 231.562 51.958C210.918 70.1332 187.311 84.9236 161.851 96.2695C148.586 72.1469 134.187 48.7558 118.022 26.6895C128.254 24.0532 138.931 22.5 150 22.5ZM95.8887 34.6289C112.482 56.5704 127.122 79.982 140.596 104.15C112.878 113.78 83.5328 120 52.5 120C43.7427 120 35.1101 119.416 26.543 118.579C35.9768 81.2645 61.732 50.6362 95.8887 34.6289ZM247.515 67.8516C265.959 89.7369 277.151 117.913 277.441 148.784C261.245 144.721 244.32 142.5 226.875 142.5C213.164 142.5 199.918 144.27 186.943 146.807C182.424 136.338 177.475 126.164 172.383 116.016C199.828 103.604 225.303 87.5718 247.515 67.8516ZM151.333 124.277C156.084 133.662 160.876 142.979 165.117 152.651C119.649 166.872 80.6194 195.741 54.4336 234.287C34.6152 211.824 22.5 182.395 22.5 150C22.5 146.892 22.7514 143.852 22.9688 140.801C32.6834 141.797 42.4939 142.5 52.5 142.5C87.3253 142.5 120.338 135.474 151.333 124.277ZM226.875 165C243.741 165 260.013 167.395 275.537 171.621C269.651 206.17 250.021 235.932 222.334 255.015C215.665 225.487 206.33 197.018 195.645 169.219C205.951 167.444 216.053 165 226.875 165ZM173.188 173.438C184.97 203.442 195.047 234.311 201.797 266.484C185.968 273.514 168.471 277.5 150 277.5C120.08 277.5 92.6784 267.17 70.957 249.99C94.5666 213.58 130.731 186.309 173.188 173.438Z" fill="#737373"/>
</g>
<defs>
<clipPath id="clip0_24_51">
<rect width="300" height="300" fill="white"/>
</clipPath>
</defs>
</svg>
