<svg width="300" height="300" viewBox="0 0 300 300" fill="none" xmlns="http://www.w3.org/2000/svg">
<g clip-path="url(#clip0_24_37)">
<path d="M88.6364 0C39.7669 0 0 39.7669 0 88.6364V211.364C0 260.233 39.7669 300 88.6364 300H211.364C260.233 300 300 260.233 300 211.364V88.6364C300 39.7669 260.233 0 211.364 0H88.6364ZM88.6364 13.6364H211.364C252.862 13.6364 286.364 47.1376 286.364 88.6364V211.364C286.364 252.862 252.862 286.364 211.364 286.364H88.6364C47.1376 286.364 13.6364 252.862 13.6364 211.364V88.6364C13.6364 47.1376 47.1376 13.6364 88.6364 13.6364ZM231.818 54.5455C228.202 54.5455 224.733 55.9821 222.176 58.5395C219.618 61.0968 218.182 64.5652 218.182 68.1818C218.182 71.7984 219.618 75.2669 222.176 77.8242C224.733 80.3815 228.202 81.8182 231.818 81.8182C235.435 81.8182 238.903 80.3815 241.461 77.8242C244.018 75.2669 245.455 71.7984 245.455 68.1818C245.455 64.5652 244.018 61.0968 241.461 58.5395C238.903 55.9821 235.435 54.5455 231.818 54.5455ZM150 75C108.659 75 75 108.659 75 150C75 191.341 108.659 225 150 225C191.341 225 225 191.341 225 150C225 108.659 191.341 75 150 75ZM150 88.6364C183.971 88.6364 211.364 116.029 211.364 150C211.364 183.971 183.971 211.364 150 211.364C116.029 211.364 88.6364 183.971 88.6364 150C88.6364 116.029 116.029 88.6364 150 88.6364Z" fill="#737373"/>
</g>
<defs>
<clipPath id="clip0_24_37">
<rect width="300" height="300" fill="white"/>
</clipPath>
</defs>
</svg>
